<?xml version="1.0" encoding="utf-8"?>
<!-- Generator: Adobe Illustrator 25.2.3, SVG Export Plug-In . SVG Version: 6.00 Build 0)  -->
<svg version="1.1" id="图层_1" xmlns="http://www.w3.org/2000/svg" xmlns:xlink="http://www.w3.org/1999/xlink" x="0px" y="0px"
	 viewBox="0 0 500 500" style="enable-background:new 0 0 500 500;" xml:space="preserve">
<style type="text/css">
	.st0{fill:#FF0000;}
</style>
<g>
	<path class="st0" d="M332,149.2l-36.5,1.9l3.8,72.8l-57.4-15.4l6.7-10.3l-67.7-43.9l24.8-92.7c1.7-6.4,8.3-10.2,14.8-8.5
		l116.4,31.2c6.4,1.7,10.2,8.3,8.5,14.8L332,149.2z"/>
	<path class="st0" d="M435.5,288.6l-51.8,2.7l-13.1-34.2l-68.1,26.2l-3.1-59.4l11.9,3.2l20.9-77.9l95.9-5
		c6.6-0.3,12.3,4.8,12.7,11.4l6.3,120.4C447.2,282.5,442.1,288.2,435.5,288.6z"/>
	<path class="st0" d="M411.1,396.5l-112.5,43.2c-6.2,2.4-13.2-0.7-15.6-6.9l-18.6-48.5l28.4-23l-45.9-56.7l55.5-21.3l0.7,12.2
		l80.6-4.2l34.4,89.6C420.4,387.1,417.3,394.1,411.1,396.5z"/>
	<path class="st0" d="M264.4,384.3l-74.6,60.4c-5.2,4.2-12.8,3.4-17-1.8L97,349.2c-4.2-5.2-3.4-12.8,1.8-17l40.3-32.7l30.7,19.9
		l39.7-61.2l37.4,46.2l-11.5,4.4L264.4,384.3z"/>
	<path class="st0" d="M241.9,208.5l-32.4,49.9l-7.7-9.5l-62.7,50.8l-80.5-52.3c-5.6-3.6-7.2-11.1-3.5-16.7l65.6-101.1
		c3.6-5.6,11.1-7.2,16.7-3.5l43.5,28.3l-9.5,35.3L241.9,208.5z"/>
</g>
</svg>
