<?xml version="1.0" encoding="utf-8"?>
<!-- Generator: Adobe Illustrator 25.2.3, SVG Export Plug-In . SVG Version: 6.00 Build 0)  -->
<svg version="1.1" id="图层_1" xmlns="http://www.w3.org/2000/svg" xmlns:xlink="http://www.w3.org/1999/xlink" x="0px" y="0px"
	 viewBox="0 0 500 500" style="enable-background:new 0 0 500 500;" xml:space="preserve">
<style type="text/css">
	.st0{fill:#FF0000;}
</style>
<g>
	<path class="st0" d="M344.8,133.5l-42.2,2.2l4.4,84.1l-66.3-17.8l7.7-11.9l-78.2-50.8l28.7-107.1c2-7.4,9.6-11.8,17.1-9.8l134.5,36
		c7.4,2,11.8,9.6,9.8,17.1L344.8,133.5z"/>
	<path class="st0" d="M464.3,294.6l-59.9,3.1l-15.2-39.5l-78.7,30.2l-3.6-68.6l13.7,3.7l24.1-90l110.8-5.8
		c7.7-0.4,14.2,5.5,14.6,13.2l7.3,139.1C477.9,287.6,472,294.1,464.3,294.6z"/>
	<path class="st0" d="M436.1,419.2l-130,49.9c-7.2,2.8-15.2-0.8-18-8l-21.5-56l32.9-26.6l-53-65.5l64.1-24.6l0.8,14.1l93.1-4.9
		l39.7,103.5C446.9,408.4,443.3,416.5,436.1,419.2z"/>
	<path class="st0" d="M266.6,405.1l-86.2,69.8c-6,4.8-14.7,3.9-19.6-2.1L73.2,364.6c-4.8-6-3.9-14.7,2.1-19.6l46.6-37.7l35.5,23
		l45.9-70.7l43.2,53.4l-13.2,5.1L266.6,405.1z"/>
	<path class="st0" d="M240.6,202.1l-37.4,57.6l-8.9-11l-72.4,58.7l-93-60.4c-6.5-4.2-8.3-12.8-4.1-19.3l75.8-116.8
		c4.2-6.4,12.8-8.3,19.3-4.1l50.3,32.7l-10.9,40.8L240.6,202.1z"/>
</g>
</svg>
