<?xml version="1.0" encoding="utf-8"?>
<!-- Generator: Adobe Illustrator 25.2.3, SVG Export Plug-In . SVG Version: 6.00 Build 0)  -->
<svg version="1.1" id="图层_1" xmlns="http://www.w3.org/2000/svg" xmlns:xlink="http://www.w3.org/1999/xlink" x="0px" y="0px"
	 viewBox="0 0 500 500" style="enable-background:new 0 0 500 500;" xml:space="preserve">
<style type="text/css">
	.st0{fill:url(#SVGID_1_);}
	.st1{fill:url(#SVGID_2_);}
	.st2{fill:url(#SVGID_3_);}
</style>
<g>
	<linearGradient id="SVGID_1_" gradientUnits="userSpaceOnUse" x1="214.5091" y1="337.469" x2="383.1805" y2="243.6834">
		<stop  offset="0" style="stop-color:#FF6A15"/>
		<stop  offset="0.5466" style="stop-color:#FA8B11"/>
		<stop  offset="1" style="stop-color:#FABD31"/>
	</linearGradient>
	<path class="st0" d="M411.1,252.2c-0.4,10.6-5.8,21.1-16.3,27.1L220.2,380.1c-5.7,3.3-11.8,4.8-17.7,4.8
		c-18.5,0-35.5-14.8-35.5-35.5c0-12.7,6.8-24.4,17.7-30.8l92.6-53.5c5.1-2.9,7.8-7.9,8.1-12.9H411.1z"/>
	<linearGradient id="SVGID_2_" gradientUnits="userSpaceOnUse" x1="105.2612" y1="161.1102" x2="411.0829" y2="161.1102">
		<stop  offset="0" style="stop-color:#F12857"/>
		<stop  offset="1" style="stop-color:#FAC130"/>
	</linearGradient>
	<path class="st1" d="M285.4,252.2c0.4-5.9-2.3-12-8.1-15.4l-92.9-53.6c-5.5-3.1-11.6-2.8-16.3,0L105.3,74.4
		c9.5-5.5,21.8-6.3,32.7,0l256.8,148.3c11.3,6.5,16.7,18.1,16.3,29.5H285.4z"/>
	<linearGradient id="SVGID_3_" gradientUnits="userSpaceOnUse" x1="128.4863" y1="74.4297" x2="128.4863" y2="430.0007">
		<stop  offset="0" style="stop-color:#EF2858"/>
		<stop  offset="0.5196" style="stop-color:#F32C5A"/>
		<stop  offset="1" style="stop-color:#E94700"/>
	</linearGradient>
	<path class="st2" d="M168.1,183.2c-4.8,2.7-8.2,7.8-8.2,14.2v197.1c0,6.3-1.7,12.5-4.7,17.7c-3.1,5.3-7.5,9.8-13,13
		c-23.7,13.6-53.2-3.4-53.2-30.7V102.7c0-12.6,6.8-22.8,16.3-28.3L168.1,183.2z"/>
</g>
</svg>
