<?xml version="1.0" encoding="utf-8"?>
<!-- Generator: Adobe Illustrator 25.2.3, SVG Export Plug-In . SVG Version: 6.00 Build 0)  -->
<svg version="1.1" id="图层_1" xmlns="http://www.w3.org/2000/svg" xmlns:xlink="http://www.w3.org/1999/xlink" x="0px" y="0px"
	 viewBox="0 0 500 500" style="enable-background:new 0 0 500 500;" xml:space="preserve">
<style type="text/css">
	.st0{fill:#FFB6CB;}
	.st1{fill:#F999B7;}
	.st2{fill:#F27BA4;}
	.st3{fill:#EC5E90;}
	.st4{fill:none;}
</style>
<g>
	<polygon class="st0" points="128.7,284.9 83.6,377.8 58.3,155.5 116.8,180.9 168.3,203.3 	"/>
	<polygon class="st0" points="263.5,244.7 266.1,268.1 273.7,334.4 281.3,400.7 288.8,467 109.3,388.9 134.6,337 179.6,244 
		194,214.5 233.9,231.8 	"/>
	<polygon class="st1" points="193.5,151.3 173.7,192.1 168.3,203.3 128.7,284.9 116.8,180.9 109.3,114.7 	"/>
	<polygon class="st1" points="245.1,173.7 320.5,256.6 324.7,293.6 332.2,359.9 339.8,426.2 281.3,400.7 134.6,337 179.6,244 
		194,214.5 219.2,162.5 226.3,165.6 	"/>
	<polygon class="st1" points="314.4,203.9 314.5,204.6 313.4,203.4 	"/>
	<polygon class="st2" points="218.7,99.3 218.8,99.3 193.5,151.3 173.7,192.1 167.8,140.1 160.2,73.8 	"/>
	<polygon class="st2" points="373.3,314.8 384.1,326.6 390.7,385.3 332.2,359.9 273.7,334.4 185.6,296.1 179.6,244 194,214.5 
		219.2,162.5 224.7,151.3 224.7,151.3 245.1,173.7 320.5,256.6 	"/>
	<polygon class="st2" points="365.4,163 378.1,274.6 314.5,204.6 313.4,203.4 218.8,99.3 	"/>
	<polygon class="st3" points="320.5,256.6 373.3,314.8 324.7,293.6 266.1,268.1 236.5,255.3 233.9,231.8 226.3,165.6 224.7,151.3 
		245.1,173.7 	"/>
	<polygon class="st3" points="416.4,122.2 441.7,344.5 378.1,274.6 314.5,204.6 313.4,203.4 218.8,99.3 218.7,99.3 211.2,33 	"/>
	<polyline class="st4" points="441.7,344.5 378.1,274.6 314.5,204.6 313.4,203.4 218.8,99.3 193.5,151.3 173.7,192.1 168.3,203.3 
		128.7,284.9 83.6,377.8 	"/>
	<polyline class="st4" points="109.3,388.9 134.6,337 179.6,244 194,214.5 219.2,162.5 224.7,151.3 224.7,151.3 245.1,173.7 
		320.5,256.6 373.3,314.8 384.1,326.6 	"/>
</g>
</svg>
