<?xml version="1.0" encoding="utf-8"?>
<!-- Generator: Adobe Illustrator 25.2.3, SVG Export Plug-In . SVG Version: 6.00 Build 0)  -->
<svg version="1.1" id="图层_1" xmlns="http://www.w3.org/2000/svg" xmlns:xlink="http://www.w3.org/1999/xlink" x="0px" y="0px"
	 viewBox="0 0 500 500" style="enable-background:new 0 0 500 500;" xml:space="preserve">
<style type="text/css">
	.st0{fill:#FFB6CB;}
	.st1{fill:#F999B7;}
	.st2{fill:#F27BA4;}
	.st3{fill:#EC5E90;}
	.st4{fill:none;}
</style>
<g>
	<polygon class="st0" points="149.3,279 111.9,356 90.9,171.6 139.5,192.7 182.2,211.2 	"/>
	<polygon class="st0" points="261.2,245.6 263.4,265.1 269.7,320.1 275.9,375.1 282.2,430.1 133.3,365.3 154.2,322.2 191.6,245 
		203.5,220.5 236.6,234.9 	"/>
	<polygon class="st1" points="203.1,168.1 186.7,202 182.2,211.2 149.3,279 139.5,192.7 133.2,137.7 	"/>
	<polygon class="st1" points="245.9,186.7 308.5,255.5 312,286.2 318.2,341.2 324.5,396.2 275.9,375.1 154.2,322.2 191.6,245 
		203.5,220.5 224.5,177.4 230.3,179.9 	"/>
	<polygon class="st1" points="303.5,211.7 303.5,212.4 302.6,211.3 	"/>
	<polygon class="st2" points="224.1,124.9 224.1,124.9 203.1,168.1 186.7,202 181.8,158.8 175.5,103.8 	"/>
	<polygon class="st2" points="352.3,303.7 361.2,313.5 366.8,362.3 318.2,341.2 269.7,320.1 196.5,288.2 191.6,245 203.5,220.5 
		224.5,177.4 229,168.1 229,168.1 245.9,186.7 308.5,255.5 	"/>
	<polygon class="st2" points="345.8,177.8 356.3,270.4 303.5,212.4 302.6,211.3 224.1,124.9 	"/>
	<polygon class="st3" points="308.5,255.5 352.3,303.7 312,286.2 263.4,265.1 238.8,254.4 236.6,234.9 230.3,179.9 229,168.1 
		245.9,186.7 	"/>
	<polygon class="st3" points="388,143.9 409.1,328.4 356.3,270.4 303.5,212.4 302.6,211.3 224.1,124.9 224.1,124.9 217.8,69.9 	"/>
	<polyline class="st4" points="409.1,328.4 356.3,270.4 303.5,212.4 302.6,211.3 224.1,124.9 203.1,168.1 186.7,202 182.2,211.2 
		149.3,279 111.9,356 	"/>
	<polyline class="st4" points="133.3,365.3 154.2,322.2 191.6,245 203.5,220.5 224.5,177.4 229,168.1 229,168.1 245.9,186.7 
		308.5,255.5 352.3,303.7 361.2,313.5 	"/>
</g>
</svg>
