<?xml version="1.0" encoding="utf-8"?>
<!-- Generator: Adobe Illustrator 25.2.3, SVG Export Plug-In . SVG Version: 6.00 Build 0)  -->
<svg version="1.1" id="图层_1" xmlns="http://www.w3.org/2000/svg" xmlns:xlink="http://www.w3.org/1999/xlink" x="0px" y="0px"
	 viewBox="0 0 512 512" style="enable-background:new 0 0 512 512;" xml:space="preserve">
<style type="text/css">
	.st0{fill:#00B8F3;}
	.st1{fill:#FE4366;}
	.st2{fill:#FFFFFF;}
</style>
<g>
	<path class="st0" d="M327.1,253.4c0,72.5-67.6,131.4-151,131.4c-30.4,0-58.6-7.8-82.3-21.2l-55,26.5l17.8-56.3
		c-19.8-22.2-31.6-50-31.6-80.3c0-72.5,67.6-131.4,151-131.4C259.5,122,327.1,180.8,327.1,253.4z"/>
	<path class="st1" d="M184.9,253.4c0,72.5,67.6,131.4,151,131.4c30.4,0,58.6-7.8,82.3-21.2l55,26.5l-17.8-56.3
		c19.8-22.2,31.6-50,31.6-80.3c0-72.5-67.6-131.4-151-131.4C252.5,122,184.9,180.8,184.9,253.4z"/>
	<circle class="st0" cx="256.2" cy="237.7" r="32.2"/>
	<circle class="st2" cx="256.2" cy="225.5" r="12.2"/>
</g>
</svg>
