<?xml version="1.0" encoding="utf-8"?>
<!-- Generator: Adobe Illustrator 25.2.3, SVG Export Plug-In . SVG Version: 6.00 Build 0)  -->
<svg version="1.1" id="图层_1" xmlns="http://www.w3.org/2000/svg" xmlns:xlink="http://www.w3.org/1999/xlink" x="0px" y="0px"
	 viewBox="0 0 512 512" style="enable-background:new 0 0 512 512;" xml:space="preserve">
<style type="text/css">
	.st0{fill:#FF792F;}
	.st1{fill:#FFA32F;}
	.st2{fill:#FFB949;}
	.st3{fill:#0076B0;}
	.st4{fill:#0AA6D0;}
	.st5{fill:#51BCD6;}
</style>
<g>
	<g>
		<path class="st0" d="M343.3,78.2c-28.7-6.7-59.4-4.4-87.3,7.5c-11.5,4.9-22.6,11.4-32.8,19.6c-10.7,8.6-19.9,18.4-27.5,29.1
			c-12.4,17.6-20.4,37.5-23.8,58.1c-2.6,15.8-2.5,32,0.3,47.9c2.2,12.2,6,24.1,11.4,35.6c4.1,8.7,9.2,17.1,15.3,25
			c0.1,0.2,0.2,0.3,0.3,0.5c0.5,0.7,1,1.3,1.6,2c0.1,0.1,0.2,0.2,0.3,0.3c0,0,0.1,0.1,0.1,0.1c0.1,0.1,0.1,0.2,0.2,0.2
			c0,0.1,0.1,0.1,0.2,0.2c0,0.1,0.1,0.2,0.2,0.3c0.1,0.1,0.2,0.2,0.3,0.3c1.3,1.5,2.6,3,4.1,4.4c1.6,1.6,3.2,3.1,5,4.5
			c0.3,0.2,0.6,0.5,0.9,0.7c0.5,0.4,1,0.8,1.5,1.1c0.2,0.1,0.3,0.3,0.5,0.4c0.9,0.7,1.7,1.3,2.6,1.8c0.9,0.6,1.9,1.3,2.9,1.8
			c1,0.6,1.9,1.2,2.9,1.7c0.9,0.5,1.9,1,2.8,1.5c0.8,0.4,1.6,0.8,2.4,1.1c0.8,0.4,1.6,0.7,2.4,1c0.2,0.1,0.3,0.2,0.5,0.2
			c0.6,0.3,1.2,0.5,1.8,0.7c0.8,0.3,1.5,0.6,2.3,0.8c0.1,0.1,0.3,0.1,0.4,0.1c0.6,0.2,1.2,0.4,1.9,0.5c0.5,0.2,1.1,0.3,1.7,0.5
			c2,0.5,4,0.9,5.9,1.2c0.6,0.1,1.3,0.2,1.9,0.3c0.5,0.1,0.9,0.1,1.4,0.2c0.5,0.1,1,0.1,1.6,0.1c0.9,0.1,1.9,0.2,2.9,0.2
			c0.2,0,0.5,0,0.7,0c-10-0.2-19.8-1.4-29.2-3.6c-12.4-2.9-24.1-7.4-34.9-13.3c-14.2-7.7-26.9-17.7-37.6-29.6
			c-14-15.5-24.6-34.2-30.6-54.8c-3.7-12.6-5.6-25.8-5.6-39.6c0-13.1,1.8-25.8,5.2-37.9c8.1-29.2,25.4-54.6,48.6-72.9
			c24-18.9,54.3-30.2,87.3-30.2C289,47.9,319.3,59.3,343.3,78.2z"/>
	</g>
	<g>
		<path class="st1" d="M452.2,214.7c-12.7-26.7-33.6-49.2-60.3-63.6c-11-5.9-23-10.5-35.7-13.4c-13.4-3.1-26.8-4.1-39.9-3.3
			c-21.4,1.3-42,7.5-60.3,17.7c-14,7.8-26.6,18-37.3,30.1c-8.1,9.3-15.1,19.7-20.7,31.1c-4.3,8.8-7.7,18.1-10.2,28
			c0,0.1-0.1,0.2-0.1,0.4c-0.2,0.7-0.3,1.4-0.5,2.2c-0.2,0.7-0.3,1.5-0.5,2.2c0,0,0,0.1,0,0.1c-0.1,0.7-0.3,1.4-0.4,2
			c-0.1,0.6-0.2,1.3-0.3,1.9c-0.1,0.5-0.1,0.9-0.2,1.4c-0.1,0.5-0.1,1-0.1,1.6c-0.1,0.9-0.2,1.9-0.2,2.9c-0.1,1.2-0.1,2.4-0.1,3.6
			v0.1c0,1.2,0,2.4,0.1,3.6c0,1.1,0.1,2.2,0.2,3.3c0,0.1,0,0.3,0,0.4c0.1,0.8,0.2,1.6,0.3,2.3c0,0.1,0,0.2,0,0.4
			c0.1,0.5,0.1,0.9,0.2,1.4c0.1,0.8,0.3,1.6,0.4,2.3c0.1,0.6,0.2,1.1,0.4,1.7c0.1,0.6,0.3,1.2,0.4,1.9c0.1,0.5,0.3,1,0.4,1.6
			c0.2,0.7,0.4,1.5,0.6,2.2c0.3,0.9,0.6,1.9,0.9,2.8c0.1,0.3,0.2,0.6,0.3,0.9c0.3,0.9,0.7,1.8,1.1,2.7c0.4,0.9,0.8,1.8,1.2,2.7
			c0.1,0.2,0.2,0.4,0.3,0.7c0.5,0.9,0.9,1.9,1.4,2.8c0.6,1,1.1,2,1.7,2.9c0.6,1,1.2,1.9,1.8,2.9c0.4,0.7,0.9,1.4,1.4,2.1
			c-6.1-8-11.1-16.3-15.3-25c-5.4-11.4-9.2-23.4-11.4-35.6c-2.8-15.9-2.9-32.1-0.3-47.9c3.4-20.6,11.4-40.6,23.8-58.1
			c7.5-10.7,16.7-20.5,27.5-29.1c10.3-8.2,21.3-14.7,32.8-19.6c27.9-11.9,58.5-14.2,87.3-7.5c29.8,7,57.6,23.6,78.1,49.4
			C441.9,153.4,452,184.1,452.2,214.7z"/>
	</g>
	<g>
		<path class="st2" d="M462.2,306.6c-7.3,32.1-25.1,59.2-48.9,78.4c13-26.5,17.5-56.9,12.2-86.8c-2.2-12.3-6.1-24.5-11.8-36.3
			c-6-12.4-13.5-23.5-22.3-33.2c-14.4-16-32-28.2-51.4-36.1c-14.8-6.1-30.6-9.6-46.7-10.4c-12.4-0.6-24.9,0.4-37.2,3.2
			c-9.4,2.1-18.7,5.2-27.7,9.3c-0.6,0.2-1.1,0.5-1.7,0.8c-0.4,0.2-0.8,0.4-1.2,0.6c-0.1,0.1-0.3,0.1-0.4,0.2
			c-0.5,0.2-0.9,0.4-1.3,0.7c-0.2,0.1-0.5,0.2-0.7,0.4c-0.2,0.1-0.4,0.2-0.6,0.3c-0.2,0.1-0.4,0.2-0.6,0.4c-0.6,0.3-1.2,0.7-1.8,1
			c-1.5,0.9-2.9,1.8-4.3,2.7c-0.6,0.4-1.2,0.9-1.9,1.3c-0.9,0.7-1.8,1.4-2.7,2.1c-0.1,0-0.2,0.1-0.3,0.2c-0.8,0.7-1.6,1.3-2.3,2
			c-0.8,0.7-1.5,1.4-2.2,2.1l-0.4,0.4c-0.7,0.7-1.4,1.5-2.1,2.2c-0.9,1-1.8,2-2.6,3c-0.1,0.2-0.3,0.3-0.4,0.5
			c-0.3,0.4-0.7,0.9-1,1.3c-0.2,0.2-0.3,0.4-0.5,0.6c-0.5,0.7-1,1.3-1.5,2c-2.6,3.7-4.7,7.6-6.5,11.6c-0.4,0.8-0.7,1.6-1,2.4
			c-0.1,0.2-0.2,0.3-0.2,0.5c-0.3,0.7-0.6,1.4-0.8,2.1c-0.6,1.7-1.1,3.4-1.6,5.1c2.4-9.9,5.9-19.2,10.2-28
			c5.5-11.4,12.5-21.8,20.7-31.1C229.4,170,242,159.8,256,152c18.3-10.2,38.8-16.4,60.3-17.7c13.1-0.8,26.5,0.2,39.9,3.3
			c12.8,2.9,24.8,7.5,35.7,13.4c26.7,14.4,47.6,36.9,60.3,63.6C465.3,242.3,469.6,274.4,462.2,306.6z"/>
	</g>
	<g>
		<path class="st3" d="M413.3,384.9c-13.4,27.5-35.8,50.8-65.5,65.1c-29.7,14.3-61.9,17.3-91.8,10.6c28.8-6.4,55.4-21.8,75.4-44.6
			c8.3-9.4,15.4-20.1,21.1-31.9c6-12.4,9.9-25.2,12.1-38.1c3.5-21.2,2.1-42.6-3.8-62.7c-4.5-15.4-11.6-29.9-21-43
			c-7.2-10-15.8-19.2-25.7-27.1c-7.4-6-15.5-11.3-24.2-15.7c0,0-0.1-0.1-0.2-0.1c-1-0.5-2-1-3-1.5c-0.6-0.3-1.1-0.5-1.7-0.8
			c-0.6-0.3-1.2-0.5-1.8-0.8c-0.4-0.2-0.8-0.3-1.2-0.5c-0.2-0.1-0.3-0.2-0.5-0.2c-0.7-0.3-1.4-0.5-2.1-0.8c-0.3-0.1-0.6-0.2-0.9-0.3
			c-0.8-0.3-1.6-0.5-2.4-0.8c-0.9-0.3-1.9-0.5-2.8-0.8c-2-0.5-3.9-0.9-5.9-1.2c-0.6-0.1-1.3-0.2-1.9-0.3c-0.5-0.1-0.9-0.1-1.4-0.2
			c-0.5-0.1-1-0.1-1.6-0.1c-0.9-0.1-1.9-0.2-2.9-0.2c-1.2-0.1-2.4-0.1-3.6-0.1h-0.1c-1.2,0-2.4,0-3.6,0.1c-1,0-2.1,0.1-3.1,0.2
			c-1,0.1-2.1,0.2-3.1,0.4c-0.5,0.1-1.1,0.1-1.7,0.2c-0.7,0.1-1.4,0.2-2.1,0.4c-0.6,0.1-1.1,0.2-1.7,0.4c-1.3,0.3-2.5,0.6-3.8,0.9
			c-0.6,0.2-1.3,0.3-1.9,0.5c-2.3,0.7-4.5,1.5-6.7,2.5c9-4.1,18.3-7.2,27.7-9.3c12.4-2.7,24.9-3.8,37.2-3.2
			c16.1,0.8,31.9,4.3,46.7,10.4c19.4,7.9,37,20.1,51.4,36.1c8.8,9.7,16.3,20.8,22.3,33.2c5.7,11.8,9.6,24,11.8,36.3
			C430.8,328,426.2,358.4,413.3,384.9z"/>
	</g>
	<g>
		<path class="st4" d="M364.6,346.1c-2.1,12.9-6.1,25.7-12.1,38.1c-5.7,11.8-12.8,22.5-21.1,31.9c-20,22.8-46.6,38.2-75.4,44.6
			c-29.9,6.7-62.1,3.7-91.8-10.6c-29.7-14.3-52.1-37.6-65.5-65.1c23,18.5,51.6,29.7,81.9,31.1c12.5,0.6,25.2-0.5,38-3.4
			c13.4-3.1,25.9-8,37.4-14.3c18.7-10.5,34.6-24.9,46.6-42.1c9.2-13.1,16.2-27.7,20.5-43.3c3.3-11.9,5.1-24.3,5.2-37
			c0.1-10.1-1-20.4-3.2-30.7c0-0.1,0-0.2-0.1-0.3c-0.1-0.4-0.2-0.9-0.3-1.3c-0.1-0.5-0.2-1-0.4-1.5c0-0.2-0.1-0.4-0.1-0.6
			c-0.1-0.3-0.2-0.6-0.3-0.9c-0.1-0.4-0.2-0.8-0.3-1.1c-0.2-0.9-0.5-1.7-0.8-2.5c-0.6-1.8-1.3-3.6-2-5.4c-0.4-1-0.9-1.9-1.3-2.9
			c-0.5-1-1-2-1.5-3c0,0,0,0,0,0c-0.5-1-1.1-1.9-1.7-2.9c-0.1-0.2-0.2-0.3-0.3-0.5c-0.5-0.8-1-1.6-1.6-2.4c-1.3-1.9-2.6-3.7-4.1-5.4
			c-0.1-0.1-0.1-0.2-0.2-0.2c-0.7-0.8-1.3-1.6-2-2.3c-0.6-0.6-1.1-1.3-1.8-1.8c-0.1-0.1-0.2-0.2-0.3-0.3c-0.4-0.4-0.7-0.8-1.1-1.1
			c-1.1-1.1-2.3-2.1-3.5-3.2c-0.5-0.4-1-0.8-1.5-1.2c0,0,0,0,0,0s-0.1,0-0.1-0.1c-0.8-0.6-1.6-1.2-2.4-1.8c-0.8-0.6-1.7-1.2-2.5-1.8
			c-1.7-1.1-3.4-2.2-5.2-3.1c8.7,4.4,16.8,9.7,24.2,15.7c9.9,7.9,18.5,17.1,25.7,27.1c9.5,13.1,16.5,27.6,21,43
			C366.6,303.5,368.1,324.9,364.6,346.1z"/>
	</g>
	<g>
		<path class="st5" d="M328.3,276c-0.1,12.7-1.8,25.1-5.2,37c-4.4,15.5-11.3,30.2-20.5,43.3c-12,17.1-27.8,31.6-46.6,42.1
			c-11.4,6.4-23.9,11.3-37.4,14.3c-12.8,2.9-25.6,4-38,3.4c-30.3-1.4-58.9-12.6-81.9-31.1c-23.9-19.2-41.7-46.2-49-78.4
			c-7.3-32.1-3-64.2,10.1-91.8c-0.1,29.5,8.9,58.8,26.7,83.4c7.3,10.1,16.1,19.5,26.4,27.6c10.7,8.6,22.4,15.3,34.5,20.3
			c19.9,8.2,41.1,11.5,61.9,10.2c16-1,31.8-4.6,46.6-10.9c11.4-4.8,22.2-11.2,32.2-19c8-6.4,15.5-13.7,22.2-22
			c0.1-0.1,0.3-0.3,0.4-0.4l0.4-0.4c0.4-0.5,0.8-1,1.1-1.5c0.1-0.2,0.3-0.3,0.4-0.5c0.1-0.1,0.2-0.3,0.3-0.5
			c0.1-0.1,0.1-0.2,0.2-0.3c0.3-0.4,0.6-0.8,0.9-1.3c0.3-0.3,0.5-0.7,0.7-1c1.1-1.7,2.2-3.4,3.1-5.2c0-0.1,0.1-0.1,0.1-0.2
			c0.5-0.9,1-1.9,1.5-2.9c0.1-0.1,0.2-0.3,0.2-0.4c0.5-0.9,0.9-1.9,1.3-2.8c0.4-1,0.8-2,1.2-3c0.1-0.1,0.1-0.3,0.2-0.5
			c0.3-0.9,0.6-1.8,0.9-2.7c0.1-0.2,0.1-0.3,0.2-0.5c0.2-0.8,0.5-1.6,0.7-2.4c0.7-2.3,1.2-4.7,1.5-7.1c0.1-0.6,0.2-1.1,0.2-1.7
			c0.1-0.5,0.1-1.1,0.2-1.7c0.1-0.5,0.1-0.9,0.1-1.4c0.1-1,0.2-1.9,0.2-2.9c0.1-1.2,0.1-2.4,0.1-3.6v-0.1c0-1.2,0-2.4-0.1-3.6
			c0-1-0.1-2.1-0.2-3.1c-0.1-1-0.2-2.1-0.4-3.1c-0.1-0.6-0.1-1.1-0.2-1.7c-0.1-0.7-0.2-1.4-0.4-2c0-0.2-0.1-0.4-0.1-0.6
			C327.3,255.6,328.4,265.9,328.3,276z"/>
	</g>
</g>
</svg>
