<?xml version="1.0" encoding="utf-8"?>
<!-- Generator: Adobe Illustrator 25.2.3, SVG Export Plug-In . SVG Version: 6.00 Build 0)  -->
<svg version="1.1" id="图层_1" xmlns="http://www.w3.org/2000/svg" xmlns:xlink="http://www.w3.org/1999/xlink" x="0px" y="0px"
	 viewBox="0 0 512 512" style="enable-background:new 0 0 512 512;" xml:space="preserve">
<style type="text/css">
	.st0{fill:#FEEC6D;}
	.st1{clip-path:url(#SVGID_2_);}
</style>
<g>
	<path class="st0" d="M453.1,303.4c3.7-15.2,5.7-31.1,5.7-47.4c0-27.9-5.7-54.6-15.9-78.8l-49,38.1c3.8,12.9,5.9,26.6,5.9,40.7
		c0,8.5-0.8,16.8-2.2,24.9L453.1,303.4z"/>
	<g>
		<g>
			<defs>
				<path id="SVGID_1_" d="M375.7,335.6c-25.8,38.6-69.8,64.2-119.7,64.2c-79.3,0-143.8-64.5-143.8-143.8S176.7,112.2,256,112.2
					c43.7,0,82.9,19.7,109.3,50.6l46.6-36.3C374.7,81.8,318.6,53.2,256,53.2c-111.8,0-202.8,91-202.8,202.8s91,202.8,202.8,202.8
					c74.6,0,139.8-40.5,175.1-100.6L375.7,335.6z"/>
			</defs>
			<clipPath id="SVGID_2_">
				<use xlink:href="#SVGID_1_"  style="overflow:visible;"/>
			</clipPath>
			<g class="st1">
				<g>
					<defs>
						<rect id="SVGID_3_" x="48.2" y="48.2" width="387.8" height="415.5"/>
					</defs>
					<clipPath id="SVGID_4_">
						<use xlink:href="#SVGID_3_"  style="overflow:visible;"/>
					</clipPath>
					<g style="clip-path:url(#SVGID_4_);">
						
							<image style="overflow:visible;" width="809" height="867" xlink:href="23FB24A.jpg"  transform="matrix(0.48 0 0 0.48 48 48)">
						</image>
					</g>
				</g>
			</g>
		</g>
	</g>
</g>
</svg>
