<?xml version="1.0" encoding="utf-8"?>
<!-- Generator: Adobe Illustrator 25.2.3, SVG Export Plug-In . SVG Version: 6.00 Build 0)  -->
<svg version="1.1" id="图层_1" xmlns="http://www.w3.org/2000/svg" xmlns:xlink="http://www.w3.org/1999/xlink" x="0px" y="0px"
	 viewBox="0 0 512 512" style="enable-background:new 0 0 512 512;" xml:space="preserve">
<style type="text/css">
	.st0{fill:#EF8E38;}
	.st1{fill:#358DAF;}
	.st2{fill:#108DC7;}
	.st3{fill:#A58E68;}
</style>
<g>
	<polygon class="st0" points="128.4,35 128.4,201.9 89.3,239.1 89.3,35 	"/>
	<polygon class="st1" points="155.8,35 155.8,160.3 128.4,186.3 128.4,35 	"/>
	<polygon class="st2" points="155.8,175.9 155.8,413.8 89.3,477 89.3,239.1 128.4,201.9 	"/>
	<polygon class="st2" points="422.7,314.7 422.7,466.7 287.6,331.5 282.9,326.8 265.5,309.5 180.1,390.7 180.1,137.2 287.6,35 
		287.6,179.5 358.9,250.8 	"/>
	<polygon class="st0" points="422.7,35 422.7,187 369.6,240.1 293.6,164.1 	"/>
	<polygon class="st3" points="369.6,240.1 358.9,250.8 287.6,179.5 287.6,170.1 293.6,164.1 	"/>
</g>
</svg>
