<?xml version="1.0" encoding="utf-8"?>
<!-- Generator: Adobe Illustrator 25.2.3, SVG Export Plug-In . SVG Version: 6.00 Build 0)  -->
<svg version="1.1" id="图层_1" xmlns="http://www.w3.org/2000/svg" xmlns:xlink="http://www.w3.org/1999/xlink" x="0px" y="0px"
	 viewBox="0 0 512 512" style="enable-background:new 0 0 512 512;" xml:space="preserve">
<style type="text/css">
	.st0{fill:#EF8E38;}
	.st1{fill:#358DAF;}
	.st2{fill:#108DC7;}
	.st3{fill:#A58E68;}
</style>
<g>
	<polygon class="st0" points="-689.7,-144.4 -689.7,22.5 -728.9,59.8 -728.9,-144.4 	"/>
	<polygon class="st1" points="-662.4,-144.4 -662.4,-19.1 -689.7,6.9 -689.7,-144.4 	"/>
	<polygon class="st2" points="-662.4,-3.5 -662.4,234.4 -728.9,297.7 -728.9,59.8 -689.7,22.5 	"/>
	<polygon class="st2" points="-395.4,135.4 -395.4,287.4 -530.6,152.2 -535.3,147.5 -552.7,130.1 -638.1,211.3 -638.1,-42.2 
		-530.6,-144.4 -530.6,0.2 -459.3,71.5 	"/>
	<polygon class="st0" points="-395.4,-144.4 -395.4,7.6 -448.6,60.8 -524.6,-15.2 	"/>
	<polygon class="st3" points="-448.6,60.8 -459.3,71.5 -530.6,0.2 -530.6,-9.2 -524.6,-15.2 	"/>
</g>
<g>
	<polygon class="st2" points="392.9,328.1 392.9,499.5 240.4,347 235.1,341.7 215.5,322.2 119.1,413.8 119.1,127.7 240.4,12.5 
		240.4,175.5 320.8,256 	"/>
	<polygon class="st0" points="392.9,12.5 392.9,184 332.9,243.9 247.2,158.2 	"/>
	<polygon class="st3" points="332.9,243.9 320.8,256 240.4,175.5 240.4,165 247.2,158.2 	"/>
</g>
</svg>
