<?xml version="1.0" encoding="utf-8"?>
<!-- Generator: Adobe Illustrator 25.2.3, SVG Export Plug-In . SVG Version: 6.00 Build 0)  -->
<svg version="1.1" id="图层_1" xmlns="http://www.w3.org/2000/svg" xmlns:xlink="http://www.w3.org/1999/xlink" x="0px" y="0px"
	 viewBox="0 0 512 512" style="enable-background:new 0 0 512 512;" xml:space="preserve">
<style type="text/css">
	.st0{fill:url(#SVGID_1_);}
	.st1{fill:url(#SVGID_2_);}
	.st2{fill:url(#SVGID_3_);}
	.st3{fill:url(#SVGID_4_);}
	.st4{fill:url(#SVGID_5_);}
	.st5{fill:url(#SVGID_6_);}
	.st6{fill:url(#SVGID_7_);}
	.st7{fill:url(#SVGID_8_);}
	.st8{fill:url(#SVGID_9_);}
	.st9{fill:url(#SVGID_10_);}
	.st10{fill:url(#SVGID_11_);}
	.st11{fill:url(#SVGID_12_);}
	.st12{fill:url(#SVGID_13_);}
	.st13{fill:url(#SVGID_14_);}
	.st14{fill:url(#SVGID_15_);}
	.st15{fill:url(#SVGID_16_);}
	.st16{fill:url(#SVGID_17_);}
	.st17{fill:url(#SVGID_18_);}
	.st18{fill:url(#SVGID_19_);}
	.st19{fill:url(#SVGID_20_);}
	.st20{fill:url(#SVGID_21_);}
	.st21{fill:url(#SVGID_22_);}
	.st22{fill:url(#SVGID_23_);}
	.st23{fill:url(#SVGID_24_);}
	.st24{fill:url(#SVGID_25_);}
	.st25{fill:url(#SVGID_26_);}
	.st26{fill:url(#SVGID_27_);}
	.st27{fill:url(#SVGID_28_);}
	.st28{fill:url(#SVGID_29_);}
	.st29{fill:url(#SVGID_30_);}
	.st30{fill:url(#SVGID_31_);}
	.st31{fill:url(#SVGID_32_);}
	.st32{fill:url(#SVGID_33_);}
	.st33{fill:url(#SVGID_34_);}
	.st34{fill:url(#SVGID_35_);}
	.st35{fill:url(#SVGID_36_);}
	.st36{fill:url(#SVGID_37_);}
	.st37{fill:url(#SVGID_38_);}
	.st38{fill:url(#SVGID_39_);}
	.st39{fill:url(#SVGID_40_);}
	.st40{fill:url(#SVGID_41_);}
	.st41{fill:url(#SVGID_42_);}
	.st42{fill:url(#SVGID_43_);}
	.st43{fill:url(#SVGID_44_);}
	.st44{fill:url(#SVGID_45_);}
	.st45{fill:url(#SVGID_46_);}
	.st46{fill:url(#SVGID_47_);}
	.st47{fill:url(#SVGID_48_);}
</style>
<g>
	<linearGradient id="SVGID_1_" gradientUnits="userSpaceOnUse" x1="413.8552" y1="217.7294" x2="413.8552" y2="358.1161">
		<stop  offset="0" style="stop-color:#F75061"/>
		<stop  offset="1" style="stop-color:#B53052"/>
	</linearGradient>
	<path class="st0" d="M439.3,228c0,0.5,0,0.9,0,1.4c0,0,0,0,0,0c-1.6,47.5-19.6,92.9-50.9,128.7c20.1-40.2,30.3-84.5,29.7-129.4
		c-0.2-5.9,4.4-10.8,10.3-10.9C434.2,217.6,439.1,222.2,439.3,228z"/>
	<linearGradient id="SVGID_2_" gradientUnits="userSpaceOnUse" x1="326.2277" y1="18.6602" x2="326.2277" y2="329.5323">
		<stop  offset="0" style="stop-color:#DF3B54"/>
		<stop  offset="1" style="stop-color:#FE6F69"/>
	</linearGradient>
	<path class="st1" d="M377.5,329.5c1.1-3.8-0.4-10.2-0.9-14c-0.6-4.8-1.5-9.6-2.6-14.4c-2.3-9.4-5.8-18.5-10.3-27.1
		c-8-15.2-19.9-26.8-32.1-38.4c-32.4-30.7-58-71.9-66-116.2c-0.3-1.8-0.6-3.6-0.9-5.5c-4.8-32.1-0.9-65.3,11.5-95.3
		C371.7,90.9,412.2,214.9,377.5,329.5z"/>
	<linearGradient id="SVGID_3_" gradientUnits="userSpaceOnUse" x1="298.9734" y1="413.257" x2="298.9734" y2="18.6602">
		<stop  offset="0" style="stop-color:#FE6F69"/>
		<stop  offset="1" style="stop-color:#D93150"/>
	</linearGradient>
	<path class="st2" d="M377.5,329.5c-10.3,31-27.3,59.8-49.6,83.7c7.3-18.5,9.2-39,5.3-58.5c-3.9-19.5-13.6-37.7-27.5-51.9
		c-9.7-9.9-21.4-17.6-32.3-26.2c-11.6-9.1-21.1-20.1-28.8-32.2c-13.8-22.1-21.4-48.1-23.9-74.3c-1.6-16.4-1-33.1,1.8-49.3
		c1.8-10.8,4.6-21.5,8.4-31.9c9.5-26.5,25.1-50.6,45.2-70.3c-12.4,30-16.3,63.2-11.5,95.3c0.3,1.8,0.6,3.7,0.9,5.5
		c8.1,44.3,33.6,85.5,66,116.2c12.2,11.6,24.1,23.1,32.1,38.4c4.5,8.6,8,17.7,10.3,27.1c1.2,4.7,2.1,9.5,2.6,14.4
		C377.1,319.4,378.7,325.8,377.5,329.5z"/>
	<linearGradient id="SVGID_4_" gradientUnits="userSpaceOnUse" x1="87.4581" y1="440.1638" x2="292.1546" y2="321.9823">
		<stop  offset="0.2086" style="stop-color:#C5344C"/>
		<stop  offset="0.3324" style="stop-color:#BC334C"/>
		<stop  offset="0.5344" style="stop-color:#A4314B"/>
		<stop  offset="0.7877" style="stop-color:#7C2E49"/>
		<stop  offset="1" style="stop-color:#562B48"/>
	</linearGradient>
	<path class="st3" d="M307.6,348.7c-13.7,22.2-34.4,37.6-58.7,46.5c-16,5.9-32.9,9.3-49.8,12.3c-17.6,3.1-35.4,5.8-53.2,7.4
		c-17.8,1.6-35.3,1.4-53.1,0.8c-6.7-0.2-13.4-0.6-20.1-1.2c27-18.7,53.1-38.7,78-60c1.8-1.4,3.6-2.8,5.5-4.1
		c15.8-11.1,34.1-18.5,53.1-21.8c4.1-0.7,8.3-1.2,12.5-1.6c2.7-0.2,5.4-0.3,8.2-0.4c8.4-0.1,16.8,0.5,25,2c0,0,0,0,0.1,0
		c14.5,2.5,28.7,7.2,41.8,13.8C300.6,344.3,304.2,346.4,307.6,348.7z"/>
	<linearGradient id="SVGID_5_" gradientUnits="userSpaceOnUse" x1="105.3033" y1="471.0725" x2="314.8072" y2="350.1154">
		<stop  offset="0.1378" style="stop-color:#BB334C"/>
		<stop  offset="0.2824" style="stop-color:#B2324C"/>
		<stop  offset="0.5183" style="stop-color:#9A304B"/>
		<stop  offset="0.8142" style="stop-color:#722D49"/>
		<stop  offset="1" style="stop-color:#562B48"/>
	</linearGradient>
	<path class="st4" d="M328,413.3c-29,27.5-68.1,41.7-108,39.4c-32.3-0.9-64.2-6.4-94.8-16.2c-18-5.8-35.6-13.1-52.5-21.8
		c6.7,0.6,13.4,1,20.1,1.2c17.8,0.6,35.3,0.8,53.1-0.8c17.9-1.6,35.6-4.3,53.2-7.4c16.8-3,33.7-6.3,49.8-12.3
		c24.2-9,45-24.4,58.7-46.5c3.1,2.1,6,4.5,8.6,7.1C330.9,370.5,334.9,394,328,413.3z"/>
	<linearGradient id="SVGID_6_" gradientUnits="userSpaceOnUse" x1="89.8238" y1="480.3398" x2="328.7866" y2="416.3099">
		<stop  offset="0" style="stop-color:#BD334C"/>
		<stop  offset="0.1619" style="stop-color:#B4324C"/>
		<stop  offset="0.4258" style="stop-color:#9C304B"/>
		<stop  offset="0.757" style="stop-color:#742D49"/>
		<stop  offset="1" style="stop-color:#532A48"/>
	</linearGradient>
	<path class="st5" d="M328,413.3c-61.9,61.4-149.2,90-235.5,77c12.7-16.8,23.7-34.8,32.7-53.8c30.6,9.8,62.5,15.3,94.8,16.2
		C259.9,455,299,440.7,328,413.3z"/>
	<linearGradient id="SVGID_7_" gradientUnits="userSpaceOnUse" x1="67.4837" y1="116.7715" x2="345.9689" y2="395.2567">
		<stop  offset="0" style="stop-color:#EF485E"/>
		<stop  offset="0.1573" style="stop-color:#E6435C"/>
		<stop  offset="0.4129" style="stop-color:#CE3556"/>
		<stop  offset="0.5" style="stop-color:#C43053"/>
		<stop  offset="0.7049" style="stop-color:#A33052"/>
		<stop  offset="1" style="stop-color:#6E3051"/>
	</linearGradient>
	<path class="st6" d="M328,413.3c6.9-19.3,2.9-42.8-11.8-57.4c-2.6-2.6-5.5-5-8.6-7.1c-3.4-2.3-7-4.4-10.7-6.2
		c-13.1-6.6-27.3-11.3-41.8-13.8c0,0,0,0-0.1,0c-49.2-8.6-94.3-35.3-125-74.7c-40.6-49.3-49.9-117.2-24.1-175.6
		c18.6,73.6,69.7,134.8,138.9,166.1c7.6,12.2,17.1,23.1,28.8,32.2c10.9,8.6,22.5,16.3,32.3,26.2c13.9,14.1,23.6,32.4,27.5,51.9
		C337.2,374.2,335.3,394.8,328,413.3z"/>
	<linearGradient id="SVGID_8_" gradientUnits="userSpaceOnUse" x1="90.5239" y1="139.9345" x2="260.2959" y2="182.2634">
		<stop  offset="0" style="stop-color:#F75061"/>
		<stop  offset="1" style="stop-color:#D33053"/>
	</linearGradient>
	<path class="st7" d="M244.8,244.5C175.6,213.2,124.4,152,105.9,78.4c41,7.5,80.5,21.9,116.8,42.5c-2.8,16.3-3.4,32.9-1.8,49.3
		C223.4,196.4,230.9,222.5,244.8,244.5z"/>
</g>
<g>
	<linearGradient id="SVGID_9_" gradientUnits="userSpaceOnUse" x1="413.8552" y1="217.7294" x2="413.8552" y2="358.1161">
		<stop  offset="0" style="stop-color:#F75061"/>
		<stop  offset="1" style="stop-color:#B53052"/>
	</linearGradient>
	<path class="st8" d="M439.3,228c0,0.5,0,0.9,0,1.4c0,0,0,0,0,0c-1.6,47.5-19.6,92.9-50.9,128.7c20.1-40.2,30.3-84.5,29.7-129.4
		c-0.2-5.9,4.4-10.8,10.3-10.9C434.2,217.6,439.1,222.2,439.3,228z"/>
	<linearGradient id="SVGID_10_" gradientUnits="userSpaceOnUse" x1="326.2277" y1="18.6602" x2="326.2277" y2="329.5323">
		<stop  offset="0" style="stop-color:#DF3B54"/>
		<stop  offset="1" style="stop-color:#FE6F69"/>
	</linearGradient>
	<path class="st9" d="M377.5,329.5c1.1-3.8-0.4-10.2-0.9-14c-0.6-4.8-1.5-9.6-2.6-14.4c-2.3-9.4-5.8-18.5-10.3-27.1
		c-8-15.2-19.9-26.8-32.1-38.4c-32.4-30.7-58-71.9-66-116.2c-0.3-1.8-0.6-3.6-0.9-5.5c-4.8-32.1-0.9-65.3,11.5-95.3
		C371.7,90.9,412.2,214.9,377.5,329.5z"/>
	<linearGradient id="SVGID_11_" gradientUnits="userSpaceOnUse" x1="298.9734" y1="413.257" x2="298.9734" y2="18.6602">
		<stop  offset="0" style="stop-color:#FE6F69"/>
		<stop  offset="1" style="stop-color:#D93150"/>
	</linearGradient>
	<path class="st10" d="M377.5,329.5c-10.3,31-27.3,59.8-49.6,83.7c7.3-18.5,9.2-39,5.3-58.5c-3.9-19.5-13.6-37.7-27.5-51.9
		c-9.7-9.9-21.4-17.6-32.3-26.2c-11.6-9.1-21.1-20.1-28.8-32.2c-13.8-22.1-21.4-48.1-23.9-74.3c-1.6-16.4-1-33.1,1.8-49.3
		c1.8-10.8,4.6-21.5,8.4-31.9c9.5-26.5,25.1-50.6,45.2-70.3c-12.4,30-16.3,63.2-11.5,95.3c0.3,1.8,0.6,3.7,0.9,5.5
		c8.1,44.3,33.6,85.5,66,116.2c12.2,11.6,24.1,23.1,32.1,38.4c4.5,8.6,8,17.7,10.3,27.1c1.2,4.7,2.1,9.5,2.6,14.4
		C377.1,319.4,378.7,325.8,377.5,329.5z"/>
	<linearGradient id="SVGID_12_" gradientUnits="userSpaceOnUse" x1="87.4581" y1="440.1638" x2="292.1546" y2="321.9823">
		<stop  offset="0.2086" style="stop-color:#C5344C"/>
		<stop  offset="0.3324" style="stop-color:#BC334C"/>
		<stop  offset="0.5344" style="stop-color:#A4314B"/>
		<stop  offset="0.7877" style="stop-color:#7C2E49"/>
		<stop  offset="1" style="stop-color:#562B48"/>
	</linearGradient>
	<path class="st11" d="M307.6,348.7c-13.7,22.2-34.4,37.6-58.7,46.5c-16,5.9-32.9,9.3-49.8,12.3c-17.6,3.1-35.4,5.8-53.2,7.4
		c-17.8,1.6-35.3,1.4-53.1,0.8c-6.7-0.2-13.4-0.6-20.1-1.2c27-18.7,53.1-38.7,78-60c1.8-1.4,3.6-2.8,5.5-4.1
		c15.8-11.1,34.1-18.5,53.1-21.8c4.1-0.7,8.3-1.2,12.5-1.6c2.7-0.2,5.4-0.3,8.2-0.4c8.4-0.1,16.8,0.5,25,2c0,0,0,0,0.1,0
		c14.5,2.5,28.7,7.2,41.8,13.8C300.6,344.3,304.2,346.4,307.6,348.7z"/>
	<linearGradient id="SVGID_13_" gradientUnits="userSpaceOnUse" x1="105.3033" y1="471.0725" x2="314.8072" y2="350.1154">
		<stop  offset="0.1378" style="stop-color:#BB334C"/>
		<stop  offset="0.2824" style="stop-color:#B2324C"/>
		<stop  offset="0.5183" style="stop-color:#9A304B"/>
		<stop  offset="0.8142" style="stop-color:#722D49"/>
		<stop  offset="1" style="stop-color:#562B48"/>
	</linearGradient>
	<path class="st12" d="M328,413.3c-29,27.5-68.1,41.7-108,39.4c-32.3-0.9-64.2-6.4-94.8-16.2c-18-5.8-35.6-13.1-52.5-21.8
		c6.7,0.6,13.4,1,20.1,1.2c17.8,0.6,35.3,0.8,53.1-0.8c17.9-1.6,35.6-4.3,53.2-7.4c16.8-3,33.7-6.3,49.8-12.3
		c24.2-9,45-24.4,58.7-46.5c3.1,2.1,6,4.5,8.6,7.1C330.9,370.5,334.9,394,328,413.3z"/>
	<linearGradient id="SVGID_14_" gradientUnits="userSpaceOnUse" x1="89.8238" y1="480.3398" x2="328.7866" y2="416.3099">
		<stop  offset="0" style="stop-color:#BD334C"/>
		<stop  offset="0.1619" style="stop-color:#B4324C"/>
		<stop  offset="0.4258" style="stop-color:#9C304B"/>
		<stop  offset="0.757" style="stop-color:#742D49"/>
		<stop  offset="1" style="stop-color:#532A48"/>
	</linearGradient>
	<path class="st13" d="M328,413.3c-61.9,61.4-149.2,90-235.5,77c12.7-16.8,23.7-34.8,32.7-53.8c30.6,9.8,62.5,15.3,94.8,16.2
		C259.9,455,299,440.7,328,413.3z"/>
	<linearGradient id="SVGID_15_" gradientUnits="userSpaceOnUse" x1="67.4837" y1="116.7715" x2="345.9689" y2="395.2567">
		<stop  offset="0" style="stop-color:#EF485E"/>
		<stop  offset="0.1573" style="stop-color:#E6435C"/>
		<stop  offset="0.4129" style="stop-color:#CE3556"/>
		<stop  offset="0.5" style="stop-color:#C43053"/>
		<stop  offset="0.7049" style="stop-color:#A33052"/>
		<stop  offset="1" style="stop-color:#6E3051"/>
	</linearGradient>
	<path class="st14" d="M328,413.3c6.9-19.3,2.9-42.8-11.8-57.4c-2.6-2.6-5.5-5-8.6-7.1c-3.4-2.3-7-4.4-10.7-6.2
		c-13.1-6.6-27.3-11.3-41.8-13.8c0,0,0,0-0.1,0c-49.2-8.6-94.3-35.3-125-74.7c-40.6-49.3-49.9-117.2-24.1-175.6
		c18.6,73.6,69.7,134.8,138.9,166.1c7.6,12.2,17.1,23.1,28.8,32.2c10.9,8.6,22.5,16.3,32.3,26.2c13.9,14.1,23.6,32.4,27.5,51.9
		C337.2,374.2,335.3,394.8,328,413.3z"/>
	<linearGradient id="SVGID_16_" gradientUnits="userSpaceOnUse" x1="90.5239" y1="139.9345" x2="260.2959" y2="182.2634">
		<stop  offset="0" style="stop-color:#F75061"/>
		<stop  offset="1" style="stop-color:#D33053"/>
	</linearGradient>
	<path class="st15" d="M244.8,244.5C175.6,213.2,124.4,152,105.9,78.4c41,7.5,80.5,21.9,116.8,42.5c-2.8,16.3-3.4,32.9-1.8,49.3
		C223.4,196.4,230.9,222.5,244.8,244.5z"/>
</g>
<g>
	<linearGradient id="SVGID_17_" gradientUnits="userSpaceOnUse" x1="413.8552" y1="217.7294" x2="413.8552" y2="358.1161">
		<stop  offset="0" style="stop-color:#F75061"/>
		<stop  offset="1" style="stop-color:#B53052"/>
	</linearGradient>
	<path class="st16" d="M439.3,228c0,0.5,0,0.9,0,1.4c0,0,0,0,0,0c-1.6,47.5-19.6,92.9-50.9,128.7c20.1-40.2,30.3-84.5,29.7-129.4
		c-0.2-5.9,4.4-10.8,10.3-10.9C434.2,217.6,439.1,222.2,439.3,228z"/>
	<linearGradient id="SVGID_18_" gradientUnits="userSpaceOnUse" x1="326.2277" y1="18.6602" x2="326.2277" y2="329.5323">
		<stop  offset="0" style="stop-color:#DF3B54"/>
		<stop  offset="1" style="stop-color:#FE6F69"/>
	</linearGradient>
	<path class="st17" d="M377.5,329.5c1.1-3.8-0.4-10.2-0.9-14c-0.6-4.8-1.5-9.6-2.6-14.4c-2.3-9.4-5.8-18.5-10.3-27.1
		c-8-15.2-19.9-26.8-32.1-38.4c-32.4-30.7-58-71.9-66-116.2c-0.3-1.8-0.6-3.6-0.9-5.5c-4.8-32.1-0.9-65.3,11.5-95.3
		C371.7,90.9,412.2,214.9,377.5,329.5z"/>
	<linearGradient id="SVGID_19_" gradientUnits="userSpaceOnUse" x1="298.9734" y1="413.257" x2="298.9734" y2="18.6602">
		<stop  offset="0" style="stop-color:#FE6F69"/>
		<stop  offset="1" style="stop-color:#D93150"/>
	</linearGradient>
	<path class="st18" d="M377.5,329.5c-10.3,31-27.3,59.8-49.6,83.7c7.3-18.5,9.2-39,5.3-58.5c-3.9-19.5-13.6-37.7-27.5-51.9
		c-9.7-9.9-21.4-17.6-32.3-26.2c-11.6-9.1-21.1-20.1-28.8-32.2c-13.8-22.1-21.4-48.1-23.9-74.3c-1.6-16.4-1-33.1,1.8-49.3
		c1.8-10.8,4.6-21.5,8.4-31.9c9.5-26.5,25.1-50.6,45.2-70.3c-12.4,30-16.3,63.2-11.5,95.3c0.3,1.8,0.6,3.7,0.9,5.5
		c8.1,44.3,33.6,85.5,66,116.2c12.2,11.6,24.1,23.1,32.1,38.4c4.5,8.6,8,17.7,10.3,27.1c1.2,4.7,2.1,9.5,2.6,14.4
		C377.1,319.4,378.7,325.8,377.5,329.5z"/>
	<linearGradient id="SVGID_20_" gradientUnits="userSpaceOnUse" x1="87.4581" y1="440.1638" x2="292.1546" y2="321.9823">
		<stop  offset="0.2086" style="stop-color:#C5344C"/>
		<stop  offset="0.3324" style="stop-color:#BC334C"/>
		<stop  offset="0.5344" style="stop-color:#A4314B"/>
		<stop  offset="0.7877" style="stop-color:#7C2E49"/>
		<stop  offset="1" style="stop-color:#562B48"/>
	</linearGradient>
	<path class="st19" d="M307.6,348.7c-13.7,22.2-34.4,37.6-58.7,46.5c-16,5.9-32.9,9.3-49.8,12.3c-17.6,3.1-35.4,5.8-53.2,7.4
		c-17.8,1.6-35.3,1.4-53.1,0.8c-6.7-0.2-13.4-0.6-20.1-1.2c27-18.7,53.1-38.7,78-60c1.8-1.4,3.6-2.8,5.5-4.1
		c15.8-11.1,34.1-18.5,53.1-21.8c4.1-0.7,8.3-1.2,12.5-1.6c2.7-0.2,5.4-0.3,8.2-0.4c8.4-0.1,16.8,0.5,25,2c0,0,0,0,0.1,0
		c14.5,2.5,28.7,7.2,41.8,13.8C300.6,344.3,304.2,346.4,307.6,348.7z"/>
	<linearGradient id="SVGID_21_" gradientUnits="userSpaceOnUse" x1="105.3033" y1="471.0725" x2="314.8072" y2="350.1154">
		<stop  offset="0.1378" style="stop-color:#BB334C"/>
		<stop  offset="0.2824" style="stop-color:#B2324C"/>
		<stop  offset="0.5183" style="stop-color:#9A304B"/>
		<stop  offset="0.8142" style="stop-color:#722D49"/>
		<stop  offset="1" style="stop-color:#562B48"/>
	</linearGradient>
	<path class="st20" d="M328,413.3c-29,27.5-68.1,41.7-108,39.4c-32.3-0.9-64.2-6.4-94.8-16.2c-18-5.8-35.6-13.1-52.5-21.8
		c6.7,0.6,13.4,1,20.1,1.2c17.8,0.6,35.3,0.8,53.1-0.8c17.9-1.6,35.6-4.3,53.2-7.4c16.8-3,33.7-6.3,49.8-12.3
		c24.2-9,45-24.4,58.7-46.5c3.1,2.1,6,4.5,8.6,7.1C330.9,370.5,334.9,394,328,413.3z"/>
	<linearGradient id="SVGID_22_" gradientUnits="userSpaceOnUse" x1="89.8238" y1="480.3398" x2="328.7866" y2="416.3099">
		<stop  offset="0" style="stop-color:#BD334C"/>
		<stop  offset="0.1619" style="stop-color:#B4324C"/>
		<stop  offset="0.4258" style="stop-color:#9C304B"/>
		<stop  offset="0.757" style="stop-color:#742D49"/>
		<stop  offset="1" style="stop-color:#532A48"/>
	</linearGradient>
	<path class="st21" d="M328,413.3c-61.9,61.4-149.2,90-235.5,77c12.7-16.8,23.7-34.8,32.7-53.8c30.6,9.8,62.5,15.3,94.8,16.2
		C259.9,455,299,440.7,328,413.3z"/>
	<linearGradient id="SVGID_23_" gradientUnits="userSpaceOnUse" x1="67.4837" y1="116.7715" x2="345.9689" y2="395.2567">
		<stop  offset="0" style="stop-color:#EF485E"/>
		<stop  offset="0.1573" style="stop-color:#E6435C"/>
		<stop  offset="0.4129" style="stop-color:#CE3556"/>
		<stop  offset="0.5" style="stop-color:#C43053"/>
		<stop  offset="0.7049" style="stop-color:#A33052"/>
		<stop  offset="1" style="stop-color:#6E3051"/>
	</linearGradient>
	<path class="st22" d="M328,413.3c6.9-19.3,2.9-42.8-11.8-57.4c-2.6-2.6-5.5-5-8.6-7.1c-3.4-2.3-7-4.4-10.7-6.2
		c-13.1-6.6-27.3-11.3-41.8-13.8c0,0,0,0-0.1,0c-49.2-8.6-94.3-35.3-125-74.7c-40.6-49.3-49.9-117.2-24.1-175.6
		c18.6,73.6,69.7,134.8,138.9,166.1c7.6,12.2,17.1,23.1,28.8,32.2c10.9,8.6,22.5,16.3,32.3,26.2c13.9,14.1,23.6,32.4,27.5,51.9
		C337.2,374.2,335.3,394.8,328,413.3z"/>
	<linearGradient id="SVGID_24_" gradientUnits="userSpaceOnUse" x1="90.5239" y1="139.9345" x2="260.2959" y2="182.2634">
		<stop  offset="0" style="stop-color:#F75061"/>
		<stop  offset="1" style="stop-color:#D33053"/>
	</linearGradient>
	<path class="st23" d="M244.8,244.5C175.6,213.2,124.4,152,105.9,78.4c41,7.5,80.5,21.9,116.8,42.5c-2.8,16.3-3.4,32.9-1.8,49.3
		C223.4,196.4,230.9,222.5,244.8,244.5z"/>
</g>
<g>
	<linearGradient id="SVGID_25_" gradientUnits="userSpaceOnUse" x1="413.8552" y1="217.7294" x2="413.8552" y2="358.1161">
		<stop  offset="0" style="stop-color:#F75061"/>
		<stop  offset="1" style="stop-color:#B53052"/>
	</linearGradient>
	<path class="st24" d="M439.3,228c0,0.5,0,0.9,0,1.4c0,0,0,0,0,0c-1.6,47.5-19.6,92.9-50.9,128.7c20.1-40.2,30.3-84.5,29.7-129.4
		c-0.2-5.9,4.4-10.8,10.3-10.9C434.2,217.6,439.1,222.2,439.3,228z"/>
	<linearGradient id="SVGID_26_" gradientUnits="userSpaceOnUse" x1="326.2277" y1="18.6602" x2="326.2277" y2="329.5323">
		<stop  offset="0" style="stop-color:#DF3B54"/>
		<stop  offset="1" style="stop-color:#FE6F69"/>
	</linearGradient>
	<path class="st25" d="M377.5,329.5c1.1-3.8-0.4-10.2-0.9-14c-0.6-4.8-1.5-9.6-2.6-14.4c-2.3-9.4-5.8-18.5-10.3-27.1
		c-8-15.2-19.9-26.8-32.1-38.4c-32.4-30.7-58-71.9-66-116.2c-0.3-1.8-0.6-3.6-0.9-5.5c-4.8-32.1-0.9-65.3,11.5-95.3
		C371.7,90.9,412.2,214.9,377.5,329.5z"/>
	<linearGradient id="SVGID_27_" gradientUnits="userSpaceOnUse" x1="298.9734" y1="413.257" x2="298.9734" y2="18.6602">
		<stop  offset="0" style="stop-color:#FE6F69"/>
		<stop  offset="1" style="stop-color:#D93150"/>
	</linearGradient>
	<path class="st26" d="M377.5,329.5c-10.3,31-27.3,59.8-49.6,83.7c7.3-18.5,9.2-39,5.3-58.5c-3.9-19.5-13.6-37.7-27.5-51.9
		c-9.7-9.9-21.4-17.6-32.3-26.2c-11.6-9.1-21.1-20.1-28.8-32.2c-13.8-22.1-21.4-48.1-23.9-74.3c-1.6-16.4-1-33.1,1.8-49.3
		c1.8-10.8,4.6-21.5,8.4-31.9c9.5-26.5,25.1-50.6,45.2-70.3c-12.4,30-16.3,63.2-11.5,95.3c0.3,1.8,0.6,3.7,0.9,5.5
		c8.1,44.3,33.6,85.5,66,116.2c12.2,11.6,24.1,23.1,32.1,38.4c4.5,8.6,8,17.7,10.3,27.1c1.2,4.7,2.1,9.5,2.6,14.4
		C377.1,319.4,378.7,325.8,377.5,329.5z"/>
	<linearGradient id="SVGID_28_" gradientUnits="userSpaceOnUse" x1="87.4581" y1="440.1638" x2="292.1546" y2="321.9823">
		<stop  offset="0.2086" style="stop-color:#C5344C"/>
		<stop  offset="0.3324" style="stop-color:#BC334C"/>
		<stop  offset="0.5344" style="stop-color:#A4314B"/>
		<stop  offset="0.7877" style="stop-color:#7C2E49"/>
		<stop  offset="1" style="stop-color:#562B48"/>
	</linearGradient>
	<path class="st27" d="M307.6,348.7c-13.7,22.2-34.4,37.6-58.7,46.5c-16,5.9-32.9,9.3-49.8,12.3c-17.6,3.1-35.4,5.8-53.2,7.4
		c-17.8,1.6-35.3,1.4-53.1,0.8c-6.7-0.2-13.4-0.6-20.1-1.2c27-18.7,53.1-38.7,78-60c1.8-1.4,3.6-2.8,5.5-4.1
		c15.8-11.1,34.1-18.5,53.1-21.8c4.1-0.7,8.3-1.2,12.5-1.6c2.7-0.2,5.4-0.3,8.2-0.4c8.4-0.1,16.8,0.5,25,2c0,0,0,0,0.1,0
		c14.5,2.5,28.7,7.2,41.8,13.8C300.6,344.3,304.2,346.4,307.6,348.7z"/>
	<linearGradient id="SVGID_29_" gradientUnits="userSpaceOnUse" x1="105.3033" y1="471.0725" x2="314.8072" y2="350.1154">
		<stop  offset="0.1378" style="stop-color:#BB334C"/>
		<stop  offset="0.2824" style="stop-color:#B2324C"/>
		<stop  offset="0.5183" style="stop-color:#9A304B"/>
		<stop  offset="0.8142" style="stop-color:#722D49"/>
		<stop  offset="1" style="stop-color:#562B48"/>
	</linearGradient>
	<path class="st28" d="M328,413.3c-29,27.5-68.1,41.7-108,39.4c-32.3-0.9-64.2-6.4-94.8-16.2c-18-5.8-35.6-13.1-52.5-21.8
		c6.7,0.6,13.4,1,20.1,1.2c17.8,0.6,35.3,0.8,53.1-0.8c17.9-1.6,35.6-4.3,53.2-7.4c16.8-3,33.7-6.3,49.8-12.3
		c24.2-9,45-24.4,58.7-46.5c3.1,2.1,6,4.5,8.6,7.1C330.9,370.5,334.9,394,328,413.3z"/>
	<linearGradient id="SVGID_30_" gradientUnits="userSpaceOnUse" x1="89.8238" y1="480.3398" x2="328.7866" y2="416.3099">
		<stop  offset="0" style="stop-color:#BD334C"/>
		<stop  offset="0.1619" style="stop-color:#B4324C"/>
		<stop  offset="0.4258" style="stop-color:#9C304B"/>
		<stop  offset="0.757" style="stop-color:#742D49"/>
		<stop  offset="1" style="stop-color:#532A48"/>
	</linearGradient>
	<path class="st29" d="M328,413.3c-61.9,61.4-149.2,90-235.5,77c12.7-16.8,23.7-34.8,32.7-53.8c30.6,9.8,62.5,15.3,94.8,16.2
		C259.9,455,299,440.7,328,413.3z"/>
	<linearGradient id="SVGID_31_" gradientUnits="userSpaceOnUse" x1="67.4837" y1="116.7715" x2="345.9689" y2="395.2567">
		<stop  offset="0" style="stop-color:#EF485E"/>
		<stop  offset="0.1573" style="stop-color:#E6435C"/>
		<stop  offset="0.4129" style="stop-color:#CE3556"/>
		<stop  offset="0.5" style="stop-color:#C43053"/>
		<stop  offset="0.7049" style="stop-color:#A33052"/>
		<stop  offset="1" style="stop-color:#6E3051"/>
	</linearGradient>
	<path class="st30" d="M328,413.3c6.9-19.3,2.9-42.8-11.8-57.4c-2.6-2.6-5.5-5-8.6-7.1c-3.4-2.3-7-4.4-10.7-6.2
		c-13.1-6.6-27.3-11.3-41.8-13.8c0,0,0,0-0.1,0c-49.2-8.6-94.3-35.3-125-74.7c-40.6-49.3-49.9-117.2-24.1-175.6
		c18.6,73.6,69.7,134.8,138.9,166.1c7.6,12.2,17.1,23.1,28.8,32.2c10.9,8.6,22.5,16.3,32.3,26.2c13.9,14.1,23.6,32.4,27.5,51.9
		C337.2,374.2,335.3,394.8,328,413.3z"/>
	<linearGradient id="SVGID_32_" gradientUnits="userSpaceOnUse" x1="90.5239" y1="139.9345" x2="260.2959" y2="182.2634">
		<stop  offset="0" style="stop-color:#F75061"/>
		<stop  offset="1" style="stop-color:#D33053"/>
	</linearGradient>
	<path class="st31" d="M244.8,244.5C175.6,213.2,124.4,152,105.9,78.4c41,7.5,80.5,21.9,116.8,42.5c-2.8,16.3-3.4,32.9-1.8,49.3
		C223.4,196.4,230.9,222.5,244.8,244.5z"/>
</g>
<g>
	<linearGradient id="SVGID_33_" gradientUnits="userSpaceOnUse" x1="413.8552" y1="217.7294" x2="413.8552" y2="358.1161">
		<stop  offset="0" style="stop-color:#F75061"/>
		<stop  offset="1" style="stop-color:#B53052"/>
	</linearGradient>
	<path class="st32" d="M439.3,228c0,0.5,0,0.9,0,1.4c0,0,0,0,0,0c-1.6,47.5-19.6,92.9-50.9,128.7c20.1-40.2,30.3-84.5,29.7-129.4
		c-0.2-5.9,4.4-10.8,10.3-10.9C434.2,217.6,439.1,222.2,439.3,228z"/>
	<linearGradient id="SVGID_34_" gradientUnits="userSpaceOnUse" x1="326.2277" y1="18.6602" x2="326.2277" y2="329.5323">
		<stop  offset="0" style="stop-color:#DF3B54"/>
		<stop  offset="1" style="stop-color:#FE6F69"/>
	</linearGradient>
	<path class="st33" d="M377.5,329.5c1.1-3.8-0.4-10.2-0.9-14c-0.6-4.8-1.5-9.6-2.6-14.4c-2.3-9.4-5.8-18.5-10.3-27.1
		c-8-15.2-19.9-26.8-32.1-38.4c-32.4-30.7-58-71.9-66-116.2c-0.3-1.8-0.6-3.6-0.9-5.5c-4.8-32.1-0.9-65.3,11.5-95.3
		C371.7,90.9,412.2,214.9,377.5,329.5z"/>
	<linearGradient id="SVGID_35_" gradientUnits="userSpaceOnUse" x1="298.9734" y1="413.257" x2="298.9734" y2="18.6602">
		<stop  offset="0" style="stop-color:#FE6F69"/>
		<stop  offset="1" style="stop-color:#D93150"/>
	</linearGradient>
	<path class="st34" d="M377.5,329.5c-10.3,31-27.3,59.8-49.6,83.7c7.3-18.5,9.2-39,5.3-58.5c-3.9-19.5-13.6-37.7-27.5-51.9
		c-9.7-9.9-21.4-17.6-32.3-26.2c-11.6-9.1-21.1-20.1-28.8-32.2c-13.8-22.1-21.4-48.1-23.9-74.3c-1.6-16.4-1-33.1,1.8-49.3
		c1.8-10.8,4.6-21.5,8.4-31.9c9.5-26.5,25.1-50.6,45.2-70.3c-12.4,30-16.3,63.2-11.5,95.3c0.3,1.8,0.6,3.7,0.9,5.5
		c8.1,44.3,33.6,85.5,66,116.2c12.2,11.6,24.1,23.1,32.1,38.4c4.5,8.6,8,17.7,10.3,27.1c1.2,4.7,2.1,9.5,2.6,14.4
		C377.1,319.4,378.7,325.8,377.5,329.5z"/>
	<linearGradient id="SVGID_36_" gradientUnits="userSpaceOnUse" x1="87.4581" y1="440.1638" x2="292.1546" y2="321.9823">
		<stop  offset="0.2086" style="stop-color:#C5344C"/>
		<stop  offset="0.3324" style="stop-color:#BC334C"/>
		<stop  offset="0.5344" style="stop-color:#A4314B"/>
		<stop  offset="0.7877" style="stop-color:#7C2E49"/>
		<stop  offset="1" style="stop-color:#562B48"/>
	</linearGradient>
	<path class="st35" d="M307.6,348.7c-13.7,22.2-34.4,37.6-58.7,46.5c-16,5.9-32.9,9.3-49.8,12.3c-17.6,3.1-35.4,5.8-53.2,7.4
		c-17.8,1.6-35.3,1.4-53.1,0.8c-6.7-0.2-13.4-0.6-20.1-1.2c27-18.7,53.1-38.7,78-60c1.8-1.4,3.6-2.8,5.5-4.1
		c15.8-11.1,34.1-18.5,53.1-21.8c4.1-0.7,8.3-1.2,12.5-1.6c2.7-0.2,5.4-0.3,8.2-0.4c8.4-0.1,16.8,0.5,25,2c0,0,0,0,0.1,0
		c14.5,2.5,28.7,7.2,41.8,13.8C300.6,344.3,304.2,346.4,307.6,348.7z"/>
	<linearGradient id="SVGID_37_" gradientUnits="userSpaceOnUse" x1="105.3033" y1="471.0725" x2="314.8072" y2="350.1154">
		<stop  offset="0.1378" style="stop-color:#BB334C"/>
		<stop  offset="0.2824" style="stop-color:#B2324C"/>
		<stop  offset="0.5183" style="stop-color:#9A304B"/>
		<stop  offset="0.8142" style="stop-color:#722D49"/>
		<stop  offset="1" style="stop-color:#562B48"/>
	</linearGradient>
	<path class="st36" d="M328,413.3c-29,27.5-68.1,41.7-108,39.4c-32.3-0.9-64.2-6.4-94.8-16.2c-18-5.8-35.6-13.1-52.5-21.8
		c6.7,0.6,13.4,1,20.1,1.2c17.8,0.6,35.3,0.8,53.1-0.8c17.9-1.6,35.6-4.3,53.2-7.4c16.8-3,33.7-6.3,49.8-12.3
		c24.2-9,45-24.4,58.7-46.5c3.1,2.1,6,4.5,8.6,7.1C330.9,370.5,334.9,394,328,413.3z"/>
	<linearGradient id="SVGID_38_" gradientUnits="userSpaceOnUse" x1="89.8238" y1="480.3398" x2="328.7866" y2="416.3099">
		<stop  offset="0" style="stop-color:#BD334C"/>
		<stop  offset="0.1619" style="stop-color:#B4324C"/>
		<stop  offset="0.4258" style="stop-color:#9C304B"/>
		<stop  offset="0.757" style="stop-color:#742D49"/>
		<stop  offset="1" style="stop-color:#532A48"/>
	</linearGradient>
	<path class="st37" d="M328,413.3c-61.9,61.4-149.2,90-235.5,77c12.7-16.8,23.7-34.8,32.7-53.8c30.6,9.8,62.5,15.3,94.8,16.2
		C259.9,455,299,440.7,328,413.3z"/>
	<linearGradient id="SVGID_39_" gradientUnits="userSpaceOnUse" x1="67.4837" y1="116.7715" x2="345.9689" y2="395.2567">
		<stop  offset="0" style="stop-color:#EF485E"/>
		<stop  offset="0.1573" style="stop-color:#E6435C"/>
		<stop  offset="0.4129" style="stop-color:#CE3556"/>
		<stop  offset="0.5" style="stop-color:#C43053"/>
		<stop  offset="0.7049" style="stop-color:#A33052"/>
		<stop  offset="1" style="stop-color:#6E3051"/>
	</linearGradient>
	<path class="st38" d="M328,413.3c6.9-19.3,2.9-42.8-11.8-57.4c-2.6-2.6-5.5-5-8.6-7.1c-3.4-2.3-7-4.4-10.7-6.2
		c-13.1-6.6-27.3-11.3-41.8-13.8c0,0,0,0-0.1,0c-49.2-8.6-94.3-35.3-125-74.7c-40.6-49.3-49.9-117.2-24.1-175.6
		c18.6,73.6,69.7,134.8,138.9,166.1c7.6,12.2,17.1,23.1,28.8,32.2c10.9,8.6,22.5,16.3,32.3,26.2c13.9,14.1,23.6,32.4,27.5,51.9
		C337.2,374.2,335.3,394.8,328,413.3z"/>
	<linearGradient id="SVGID_40_" gradientUnits="userSpaceOnUse" x1="90.5239" y1="139.9345" x2="260.2959" y2="182.2634">
		<stop  offset="0" style="stop-color:#F75061"/>
		<stop  offset="1" style="stop-color:#D33053"/>
	</linearGradient>
	<path class="st39" d="M244.8,244.5C175.6,213.2,124.4,152,105.9,78.4c41,7.5,80.5,21.9,116.8,42.5c-2.8,16.3-3.4,32.9-1.8,49.3
		C223.4,196.4,230.9,222.5,244.8,244.5z"/>
</g>
<g>
	<linearGradient id="SVGID_41_" gradientUnits="userSpaceOnUse" x1="413.8552" y1="217.7294" x2="413.8552" y2="358.1161">
		<stop  offset="0" style="stop-color:#F75061"/>
		<stop  offset="1" style="stop-color:#B53052"/>
	</linearGradient>
	<path class="st40" d="M439.3,228c0,0.5,0,0.9,0,1.4c0,0,0,0,0,0c-1.6,47.5-19.6,92.9-50.9,128.7c20.1-40.2,30.3-84.5,29.7-129.4
		c-0.2-5.9,4.4-10.8,10.3-10.9C434.2,217.6,439.1,222.2,439.3,228z"/>
	<linearGradient id="SVGID_42_" gradientUnits="userSpaceOnUse" x1="326.2277" y1="18.6602" x2="326.2277" y2="329.5323">
		<stop  offset="0" style="stop-color:#DF3B54"/>
		<stop  offset="1" style="stop-color:#FE6F69"/>
	</linearGradient>
	<path class="st41" d="M377.5,329.5c1.1-3.8-0.4-10.2-0.9-14c-0.6-4.8-1.5-9.6-2.6-14.4c-2.3-9.4-5.8-18.5-10.3-27.1
		c-8-15.2-19.9-26.8-32.1-38.4c-32.4-30.7-58-71.9-66-116.2c-0.3-1.8-0.6-3.6-0.9-5.5c-4.8-32.1-0.9-65.3,11.5-95.3
		C371.7,90.9,412.2,214.9,377.5,329.5z"/>
	<linearGradient id="SVGID_43_" gradientUnits="userSpaceOnUse" x1="298.9734" y1="413.257" x2="298.9734" y2="18.6602">
		<stop  offset="0" style="stop-color:#FE6F69"/>
		<stop  offset="1" style="stop-color:#D93150"/>
	</linearGradient>
	<path class="st42" d="M377.5,329.5c-10.3,31-27.3,59.8-49.6,83.7c7.3-18.5,9.2-39,5.3-58.5c-3.9-19.5-13.6-37.7-27.5-51.9
		c-9.7-9.9-21.4-17.6-32.3-26.2c-11.6-9.1-21.1-20.1-28.8-32.2c-13.8-22.1-21.4-48.1-23.9-74.3c-1.6-16.4-1-33.1,1.8-49.3
		c1.8-10.8,4.6-21.5,8.4-31.9c9.5-26.5,25.1-50.6,45.2-70.3c-12.4,30-16.3,63.2-11.5,95.3c0.3,1.8,0.6,3.7,0.9,5.5
		c8.1,44.3,33.6,85.5,66,116.2c12.2,11.6,24.1,23.1,32.1,38.4c4.5,8.6,8,17.7,10.3,27.1c1.2,4.7,2.1,9.5,2.6,14.4
		C377.1,319.4,378.7,325.8,377.5,329.5z"/>
	<linearGradient id="SVGID_44_" gradientUnits="userSpaceOnUse" x1="87.4581" y1="440.1638" x2="292.1546" y2="321.9823">
		<stop  offset="0.2086" style="stop-color:#C5344C"/>
		<stop  offset="0.3324" style="stop-color:#BC334C"/>
		<stop  offset="0.5344" style="stop-color:#A4314B"/>
		<stop  offset="0.7877" style="stop-color:#7C2E49"/>
		<stop  offset="1" style="stop-color:#562B48"/>
	</linearGradient>
	<path class="st43" d="M307.6,348.7c-13.7,22.2-34.4,37.6-58.7,46.5c-16,5.9-32.9,9.3-49.8,12.3c-17.6,3.1-35.4,5.8-53.2,7.4
		c-17.8,1.6-35.3,1.4-53.1,0.8c-6.7-0.2-13.4-0.6-20.1-1.2c27-18.7,53.1-38.7,78-60c1.8-1.4,3.6-2.8,5.5-4.1
		c15.8-11.1,34.1-18.5,53.1-21.8c4.1-0.7,8.3-1.2,12.5-1.6c2.7-0.2,5.4-0.3,8.2-0.4c8.4-0.1,16.8,0.5,25,2c0,0,0,0,0.1,0
		c14.5,2.5,28.7,7.2,41.8,13.8C300.6,344.3,304.2,346.4,307.6,348.7z"/>
	<linearGradient id="SVGID_45_" gradientUnits="userSpaceOnUse" x1="105.3033" y1="471.0725" x2="314.8072" y2="350.1154">
		<stop  offset="0.1378" style="stop-color:#BB334C"/>
		<stop  offset="0.2824" style="stop-color:#B2324C"/>
		<stop  offset="0.5183" style="stop-color:#9A304B"/>
		<stop  offset="0.8142" style="stop-color:#722D49"/>
		<stop  offset="1" style="stop-color:#562B48"/>
	</linearGradient>
	<path class="st44" d="M328,413.3c-29,27.5-68.1,41.7-108,39.4c-32.3-0.9-64.2-6.4-94.8-16.2c-18-5.8-35.6-13.1-52.5-21.8
		c6.7,0.6,13.4,1,20.1,1.2c17.8,0.6,35.3,0.8,53.1-0.8c17.9-1.6,35.6-4.3,53.2-7.4c16.8-3,33.7-6.3,49.8-12.3
		c24.2-9,45-24.4,58.7-46.5c3.1,2.1,6,4.5,8.6,7.1C330.9,370.5,334.9,394,328,413.3z"/>
	<linearGradient id="SVGID_46_" gradientUnits="userSpaceOnUse" x1="89.8238" y1="480.3398" x2="328.7866" y2="416.3099">
		<stop  offset="0" style="stop-color:#BD334C"/>
		<stop  offset="0.1619" style="stop-color:#B4324C"/>
		<stop  offset="0.4258" style="stop-color:#9C304B"/>
		<stop  offset="0.757" style="stop-color:#742D49"/>
		<stop  offset="1" style="stop-color:#532A48"/>
	</linearGradient>
	<path class="st45" d="M328,413.3c-61.9,61.4-149.2,90-235.5,77c12.7-16.8,23.7-34.8,32.7-53.8c30.6,9.8,62.5,15.3,94.8,16.2
		C259.9,455,299,440.7,328,413.3z"/>
	<linearGradient id="SVGID_47_" gradientUnits="userSpaceOnUse" x1="67.4837" y1="116.7715" x2="345.9689" y2="395.2567">
		<stop  offset="0" style="stop-color:#EF485E"/>
		<stop  offset="0.1573" style="stop-color:#E6435C"/>
		<stop  offset="0.4129" style="stop-color:#CE3556"/>
		<stop  offset="0.5" style="stop-color:#C43053"/>
		<stop  offset="0.7049" style="stop-color:#A33052"/>
		<stop  offset="1" style="stop-color:#6E3051"/>
	</linearGradient>
	<path class="st46" d="M328,413.3c6.9-19.3,2.9-42.8-11.8-57.4c-2.6-2.6-5.5-5-8.6-7.1c-3.4-2.3-7-4.4-10.7-6.2
		c-13.1-6.6-27.3-11.3-41.8-13.8c0,0,0,0-0.1,0c-49.2-8.6-94.3-35.3-125-74.7c-40.6-49.3-49.9-117.2-24.1-175.6
		c18.6,73.6,69.7,134.8,138.9,166.1c7.6,12.2,17.1,23.1,28.8,32.2c10.9,8.6,22.5,16.3,32.3,26.2c13.9,14.1,23.6,32.4,27.5,51.9
		C337.2,374.2,335.3,394.8,328,413.3z"/>
	<linearGradient id="SVGID_48_" gradientUnits="userSpaceOnUse" x1="90.5239" y1="139.9345" x2="260.2959" y2="182.2634">
		<stop  offset="0" style="stop-color:#F75061"/>
		<stop  offset="1" style="stop-color:#D33053"/>
	</linearGradient>
	<path class="st47" d="M244.8,244.5C175.6,213.2,124.4,152,105.9,78.4c41,7.5,80.5,21.9,116.8,42.5c-2.8,16.3-3.4,32.9-1.8,49.3
		C223.4,196.4,230.9,222.5,244.8,244.5z"/>
</g>
</svg>
