<?xml version="1.0" encoding="utf-8"?>
<!-- Generator: Adobe Illustrator 25.2.3, SVG Export Plug-In . SVG Version: 6.00 Build 0)  -->
<svg version="1.1" id="图层_1" xmlns="http://www.w3.org/2000/svg" xmlns:xlink="http://www.w3.org/1999/xlink" x="0px" y="0px"
	 viewBox="0 0 512 512" style="enable-background:new 0 0 512 512;" xml:space="preserve">
<style type="text/css">
	.st0{fill:url(#SVGID_1_);}
</style>
<linearGradient id="SVGID_1_" gradientUnits="userSpaceOnUse" x1="5.0789" y1="256" x2="506.9211" y2="256">
	<stop  offset="0" style="stop-color:#12C2E9"/>
	<stop  offset="0.5" style="stop-color:#C471ED"/>
	<stop  offset="0.9944" style="stop-color:#F64F59"/>
</linearGradient>
<path class="st0" d="M367,364.3c-3.9,0-7.3-2.7-8.2-6.5l-34.7-151.6l-94.1,144.2c-2,3.1-5.9,4.5-9.4,3.5c-3.6-1.1-6-4.3-6-8V184
	l-73,111c-1.5,2.4-4.2,3.8-7,3.8H13.5c-4.6,0-8.4-3.7-8.4-8.4c0-4.6,3.7-8.4,8.4-8.4h116.8l85.9-130.6c2-3.1,5.9-4.5,9.4-3.4
	c3.5,1.1,6,4.3,6,8v161.7l89.4-137.2c1.8-2.8,5.2-4.3,8.5-3.7c3.3,0.6,5.9,3.1,6.7,6.4l22.5,98.5v-55.3c0-4.6,3.7-8.4,8.4-8.4h131.6
	c4.6,0,8.4,3.7,8.4,8.4s-3.7,8.4-8.4,8.4H375.4V356c0,4.3-3.2,7.8-7.4,8.3C367.6,364.3,367.3,364.3,367,364.3z"/>
</svg>
