<?xml version="1.0" encoding="utf-8"?>
<!-- Generator: Adobe Illustrator 25.2.3, SVG Export Plug-In . SVG Version: 6.00 Build 0)  -->
<svg version="1.1" id="图层_1" xmlns="http://www.w3.org/2000/svg" xmlns:xlink="http://www.w3.org/1999/xlink" x="0px" y="0px"
	 viewBox="0 0 512 512" style="enable-background:new 0 0 512 512;" xml:space="preserve">
<style type="text/css">
	.st0{fill:#F06292;}
</style>
<g>
	<path class="st0" d="M214.6,192.9v43.4c0,10.8,8.9,19.7,19.7,19.7h43.4c10.8,0,19.7,8.9,19.7,19.7v43.4c0,10.8-8.9,19.7-19.7,19.7
		h-43.4c-10.8,0-19.7,8.9-19.7,19.7v43.4c0,10.8-8.9,19.7-19.7,19.7h-43.4c-10.8,0-19.7-8.9-19.7-19.7v-43.4
		c0-10.8,8.9-19.7,19.7-19.7h43.4c10.8,0,19.7-8.9,19.7-19.7v-43.4c0-10.8-8.9-19.7-19.7-19.7h-43.4c-10.8,0-19.7-8.9-19.7-19.7
		v-43.4c0-10.8,8.9-19.7,19.7-19.7h43.4c10.8,0,19.7-8.9,19.7-19.7v-43.4c0-10.8,8.9-19.7,19.7-19.7h43.4c10.8,0,19.7,8.9,19.7,19.7
		v43.4c0,10.8-8.9,19.7-19.7,19.7h-43.4C223.5,173.2,214.6,182.1,214.6,192.9z"/>
	<path class="st0" d="M131.8,275.7v43.4c0,10.8-8.9,19.7-19.7,19.7H68.7c-10.8,0-19.7-8.9-19.7-19.7v-43.4
		c0-10.8,8.9-19.7,19.7-19.7h43.4C122.9,256,131.8,264.9,131.8,275.7z"/>
	<path class="st0" d="M380.2,192.9v43.4c0,10.8,8.9,19.7,19.7,19.7h43.4c10.8,0,19.7,8.9,19.7,19.7v43.4c0,10.8-8.9,19.7-19.7,19.7
		h-43.4c-10.8,0-19.7,8.9-19.7,19.7v43.4c0,10.8-8.9,19.7-19.7,19.7h-43.4c-10.8,0-19.7-8.9-19.7-19.7v-43.4
		c0-10.8,8.9-19.7,19.7-19.7h43.4c10.8,0,19.7-8.9,19.7-19.7v-43.4c0-10.8-8.9-19.7-19.7-19.7h-43.4c-10.8,0-19.7-8.9-19.7-19.7
		v-43.4c0-10.8,8.9-19.7,19.7-19.7h43.4c10.8,0,19.7-8.9,19.7-19.7v-43.4c0-10.8,8.9-19.7,19.7-19.7h43.4c10.8,0,19.7,8.9,19.7,19.7
		v43.4c0,10.8-8.9,19.7-19.7,19.7h-43.4C389.1,173.2,380.2,182.1,380.2,192.9z"/>
</g>
</svg>
